<svg width="668.128" height="692.107" xmlns="http://www.w3.org/2000/svg" xmlns:xlink="http://www.w3.org/1999/xlink"><defs><linearGradient id="a"><stop offset="0" stop-color="#FFF"/><stop offset="1" stop-color="#E6E6E6"/></linearGradient><linearGradient xlink:href="#a" y2=".376" x2=".312" y1="1.024" x1=".227" gradientTransform="translate(-15469.5 -3000.2) scale(15.8154)" id="b"/></defs><path filter="url(#filter4715)" d="M.402 546.422l370.7 147.918 297.466-210.59-370.63-97.776L.402 546.422z" transform="matrix(6.96804 0 0 7.16414 -8911.72 -4137.38)"/><path d="M22.633 266.447v277.032l354.804 128.85L651.39 489.18V225.999l-281.649 149.29L22.633 266.447z" fill="#569fff"/><path filter="url(#filter4049)" d="M21.702 522.871l348.997 130.714V383.537L21.702 277.257v245.614z" transform="translate(-15730.7 -2436.6) scale(15.8154)"/><path fill="#fff" d="M370.644 381.903h7.903v284.523h-7.903z"/><path d="M302.278 118.038l355.653 56.072-.875 95.519-279.882 141.644L16.428 300.368l.588-97.648 285.262-84.682z" fill="#569fff"/><path filter="url(#filter4286)" d="M15.96 215.483l1.44 68.955 350.453 109.158 1.424-80.437L15.96 215.483z" transform="translate(-15730.7 -2436.6) scale(15.8154)"/><path filter="url(#filter3840)" d="M18.554 190.526l353.886 93.96 278.034-121.684-.317 7.227-273.763 121.289-1.266 98.53h-8.224v-98.53L18.965 198.86l-.411-8.335z" transform="translate(-15730.7 -2436.6) scale(15.8154)"/><path filter="url(#filter3936)" d="M442.976 138.367l-289.738 91.287-3.954 341.818 74.017 29.606 3.004-350.28 294.798-111.972-78.127-.459z" transform="translate(-15730.7 -2436.6) scale(15.8154)"/><path d="M449.91 141.326l-296.476 97.896-4.414 351.7 73.661 26.465 3.705-357.02 297.452-107.8-73.928-11.241z" fill="url(#b)"/><path filter="url(#filter4286)" d="M656.815 179.919l-5.693 74.262-281.674 140.363-1.423-80.091 288.79-134.534z" transform="matrix(-15.8154 3.84775 0 15.8154 16725.9 -6396.61)"/><path filter="url(#filter3954)" d="M148.968 148.41l343.51 88.044.79 338.845 66.74-44.552-4.11-324.959-340.348-75.123-66.582 17.745z" transform="translate(-15730.7 -2436.6) scale(15.8154)"/><path d="M150.945 162.701l347.16 86.037-1.31 343.433 65.878-44.226-1.132-329.868-342.104-76.34-68.492 20.964z" fill="#fff"/><path d="M226.791 70.978s3.45 28.5 23.26 54.73c9.401 12.449 45.835 33.522 45.835 33.522l19.84 23.944s-20.524 6.841-30.786 5.473c-10.26-1.369-61.166-16.138-80.322-27.084-19.156-10.946-53.36-49.526-55.414-58.419-2.05-8.894-11.5-32.019-3.29-47.07 8.207-15.051 24.095-22.038 28.884-22.722 4.79-.684 49.94 22.576 49.94 22.576l2.053 15.05z" fill="#fff"/><path filter="url(#filter4009)" d="M153.87 229.02l65.792 16.18-4.269 183.269-63.737-56.066 2.215-143.382z" transform="translate(-15730.7 -2436.6) scale(15.8154)"/><path d="M151.405 549.973l-1.183 39.962 71.341 25.754.591-44.107-70.749-21.609z" fill="#fff"/><path filter="url(#filter4009)" d="M557.27 210.538l-53.188 23.882 2.358 146.565 52.663-46.44-1.834-124.007z" transform="matrix(-13.1002 0 0 13.1002 13828.7 -2431.54)"/><g fill="#fff"><path filter="url(#filter4332)" d="M1013.295 166.916s1.91-.141 2.19.989-.64 2.474 1.76 4.665c.71-.353.78-1.06.78-1.06l1.84.778s-1.48-2.191-1.48-3.11c0-.92.21-2.05-.43-2.403-.63-.354-3.74-.354-3.74-.354l-.92.495z" transform="rotate(5.542 33374.987 -160944.912) scale(15.81543)"/><path d="M309.81 197.619s30.282.698 33.12 18.944c2.681 18.216-13.853 37.951 20.58 76.107 11.716-4.473 13.898-15.495 13.898-15.495l27.776 15.058S385.076 255.467 386.48 241c1.403-14.466 6.593-31.933-2.941-38.468-9.534-6.55-58.49-11.3-58.49-11.3l-15.24 6.387z"/></g><path filter="url(#filter4358)" d="M229.626 163.276s-29.1 14.535-42.543 19.01c-13.443 4.476-87.143-1.123-87.143-1.123l37.957 12.305-9.964 22.347s55.67.554 75.914-2.23c30.05-4.096 39.223-27.946 80.5-29.069 24.831-.664 38.116 2.246 38.116 2.246s-33.687-26.838-92.837-23.486z" transform="translate(-15730.7 -2436.6) scale(15.8154)"/><path filter="url(#filter5203)" d="M200.368 32.815s-17.397-9.948-24.04-9.948c-6.642 0-30.681 9.126-33.212 21.572-2.53 12.447-5.851 38.163 5.852 53.093 11.545 14.945 28.942 30.713 28.942 30.713s-26.254-50.071-14.867-73.02c12.495-25.162 38.116-22.41 37.325-22.41z" transform="translate(-15730.7 -2436.6) scale(15.8154)"/><path d="M215.031 16.179c-29.762 2.089-61.203 23.056-71.663 41.021-13.948 23.953 8.018 67.132 40.304 92.087 44.245 34.2 110.436 35.474 110.436 35.474 0-1.032 43.236 11.951 25.7-38.599-25.178-72.577-42.19-108.02-76.112-125.041-8.686-4.359-18.744-5.639-28.665-4.942zM173.416 44.52c30.182-9.411 49.032 31.589 62.373 48.265 16.42 20.523 57.825 81.054 57.825 81.054l8.402 10.873s-4.576.073-50.412-10.873c-45.835-10.946-78.797-42-80.165-44.736-27.31-32.413-35.348-72.428 1.977-84.583z" fill="#569fff"/><path d="M236.49 174.645s-29.065 14.532-42.48 19.003c-13.413 4.471-87.19-1.118-87.19-1.118l38.006 12.296-10.06 22.357s55.73.544 76.012-2.235c29.923-4.102 39.124-27.946 80.485-29.064 24.811-.671 38.006 2.235 38.006 2.235s-33.535-26.828-92.78-23.474z" fill="#fff"/><path filter="url(#filter4875)" d="M379.399 157.314s-48.395-22.695-59.783-22.695c-11.387 0-29.891 21.667-24.83 35.078 5.219 13.412 45.39 22.695 57.885 22.695 10.912-2.83 21.033-6.326 31.946-11.355 0-7.212-5.218-23.723-5.218-23.723z" transform="translate(-15730.7 -2436.6) scale(15.8154)"/><path filter="url(#filter4943)" d="M252.717 88.058l43.966 69.287 21.984-16.495s-21.984-49.502-34.003-71.486c-12.178-21.999-20.876-31.9-20.876-31.9s18.662 46.198 14.233 54.99c-4.427 8.794-23.09-4.396-25.304-4.396z" transform="translate(-15730.7 -2436.6) scale(15.8154)"/><path d="M380.811 171.082c-4.885-4.128-49.56-24.037-60.908-24.037-11.348 0-29.917 21.664-24.759 35.075 5.16 13.411 45.392 22.696 57.77 22.696 11.024-2.827 21.048-6.323 31.981-11.348 0-7.221 2.148-15.291-4.084-22.386z" fill="#569fff"/><path d="M362.246 204.381s35.532 13.026 57.424 16.447c21.891 3.42 66.401 10.918 77.347 6.813 10.946-4.104 70.464-16.418 78.674-29.417 8.21-12.998-43.784-15.05-43.784-15.05s-29.418 18.471-49.942 19.839c-20.522 1.368-80.725-12.998-80.725-12.998l-38.31 10.262-.684 4.104z" fill="#fff"/><path filter="url(#filter5073)" d="M311.55 134.92s5.536-2.579 10.28-1.076c6.643 2.15 12.02 2.957 26.57 9.125 15.657 6.659 26.096 11.878 27.202 12.684 8.857 7.576 2.848 15.61 3.163 24.356-5.376 2.673-22.14 8.05-24.513 8.588-11.071-10.312 1.265-27.788 16.606-29.1-1.898-3.4-18.979-11.625-23.09-13.491-13.127-5.22-27.52-10.28-27.52-10.28s-13.443-1.66-19.452 9.663c1.423-5.646 11.387-11.007 10.754-10.47z" transform="translate(-15730.7 -2436.6) scale(15.8154)"/><g fill="#569fff"><path d="M370.293 199.585l33.529-8.208s54.72-46.514 60.89-49.25c31.627-26 71.007-35.6 103.43-23.944 0 0-3.48-41.737-14.393-47.21-11.07-5.471-41.12-9.567-41.12-9.567s-40.645 27.297-45.547 32.089c-4.744 4.792-74.331 73.241-74.331 73.241l-21.825 25.605-4.27 8.936 3.637-1.692z"/><path d="M540.148 48.31c-53.298 3.417-157.993 127.41-164.161 134.241-6.169 6.849-15.342 21.605-14.709 20.909 0 0 66.583 29.653 124.149 26.222 57.41-3.417 129.369-38.116 136.802-87.602 8.699-56.888-28.625-97.201-82.081-93.77zM503.93 71.908c18.03-3.29 56.62-3.574 49.66 53.994-4.27 35.632-29.891 92.156-82.554 94.892-52.664 2.736-104.223-20.054-103.432-20.734 0 0 83.664-88.724 87.143-91.46 3.32-2.736 28.466-31.663 49.183-36.692z"/></g><path filter="url(#filter5115)" d="M139.32 50.781c-2.213-12.826 23.25-31.725 44.758-40.013 21.667-8.303 48.553-5.646 48.553-5.646s-23.565 10.612-33.37 17.777c-19.77-2.009-37.8 6.437-37.8 6.437s-11.386 4.396-22.141 21.445z" transform="translate(-15730.7 -2436.6) scale(15.8154)"/><path filter="url(#filter5115)" d="M487.427 57.832c16.814-14.613 25.383-20.86 52.386-22.577 23.202-1.418 55.602 23.59 55.602 23.59s-24.895 16.608-35.9 21.437c-7.338-16.835-34.24-27.605-34.24-27.605s-15.835-5.947-37.848 5.155z" transform="rotate(12.901 19177.744 -68176.848) scale(15.81544)"/><path filter="url(#filter5389)" d="M551.47 67.293s11.227 27.787 5.218 51.226c-6.169 23.454-16.605 37.34-16.605 37.34s32.262 6.073 47.76-.87c15.657-6.943 24.357-19.975 24.357-19.975s6.96-39.08-2.531-57.315c-9.647-18.235-20.876-22.568-20.876-22.568s-23.406 0-37.324 12.162z" transform="translate(-15730.7 -2436.6) scale(15.8154)"/></svg>