<svg xmlns="http://www.w3.org/2000/svg" viewBox="0 0 1000 1000"><path d="M419.54 74.13c-10.15 2.11-19.92 7.28-26.25 14.18-7.66 8.24-208.23 322.41-210.92 330.65-6.9 19.92 2.49 41.76 22.22 52.49 19.92 10.92 43.49 8.05 58.81-6.9 9-8.81 209.58-321.45 213.22-332.56 4.98-14.56 1.34-29.12-10.54-42.34-11.67-13.03-29.68-19.16-46.54-15.52zm139.27.39c-11.11 2.68-17.43 6.51-25.67 15.9-11.11 12.64-14.75 27.4-9.77 41.57 3.64 11.11 204.21 323.75 213.22 332.56 15.33 15.13 39.27 17.82 59.2 6.71 18.01-10.15 27.58-31.04 22.61-49.62-2.3-8.62-203.06-324.52-212.45-334.29-10.16-10.73-31.81-16.66-47.14-12.83z"/><path d="M50.2 415.51c-21.46 4.21-38.31 24.52-40.04 48.66-2.3 29.12 20.88 56.32 48.27 56.51h9.58l46.74 178.73c26.05 99.62 48.85 182.56 51.34 187.93 9.19 18.39 30.08 33.33 52.11 37.55 14.18 2.68 549.42 2.68 563.6 0 22.03-4.21 42.91-19.16 52.11-37.55 2.49-5.37 25.29-88.5 51.34-188.12l46.74-178.54h9.58c27.39-.19 50.58-27.39 48.28-56.51-1.53-19.35-13.03-37.16-29.69-45.4-8.62-4.21-10.92-4.41-53.07-4.41h-44.06l-1.15 19.16c-1.92 28.54-9.77 45.98-29.12 63.41-28.74 25.86-68.77 31.03-104.6 13.6-19.16-9.2-29.31-20.88-53.83-61.3l-21.84-35.83H347.7l-20.88 33.91c-25.29 41.19-29.12 46.17-43.1 55.56-18.2 12.64-33.91 17.63-54.79 17.81-37.74.19-73.37-24.52-86.4-59.38-1.72-4.79-3.64-17.24-4.41-27.78l-1.15-19.16-39.27-.38c-21.64 0-42.91.57-47.5 1.53zm263.98 173.95c3.64 1.92 8.62 6.32 11.11 9.77l4.21 6.32V722.6c0 132.95.77 126.82-15.33 134.67-15.33 7.85-32.76 4.98-42.72-6.9l-5.17-6.32V603.63l4.21-5.36c2.3-2.87 6.71-6.89 9.96-8.81 7.87-4.79 24.72-4.79 33.73 0zm131.41 1.72c12.83 9 12.45 4.79 11.88 134.87-.57 113.98-.77 117.62-4.41 122.6-6.32 8.62-18.58 13.6-30.84 12.64-11.11-.96-17.82-4.6-24.52-13.79-4.02-5.17-4.02-7.09-4.02-124.33 0-113.98.19-119.35 3.64-124.52 6.13-9.01 15.71-13.03 29.88-12.26 9.2.38 14.18 1.53 18.39 4.79zm146.56-1.34c5.75 2.87 8.81 6.13 11.49 12.26 3.64 8.05 3.64 13.22 3.26 124.33-.57 113.6-.57 115.9-4.6 121.07-6.9 9.39-13.41 12.84-25.1 13.79-13.79.96-26.05-4.98-31.61-14.94-3.26-6.32-3.45-12.45-3.06-124.52l.57-117.81 4.21-5.94c8.82-12.27 29.51-16.1 44.84-8.24zm126.05-1.15c3.06 1.53 7.66 5.36 10.54 8.62l4.98 6.13v240.6l-5.17 6.32c-2.87 3.26-8.05 7.28-11.49 8.62-14.37 6.13-35.44.58-42.72-11.11-3.64-6.13-3.83-9.39-3.83-124.33V605.53l4.41-6.51c2.3-3.64 7.28-8.05 10.92-9.77 8.22-4.2 25.08-4.39 32.36-.56z"/></svg>