<svg xmlns="http://www.w3.org/2000/svg" width="864" height="864"><path d="M788.489 605.515c-1.564-1.145-4.551-.629-6.858-.428-11.085.968-22.207 1.729-33.213 3.296-5.604.798-7.961-.64-8.944-6.237-8.464-48.191-24.767-93.842-45.995-137.735-20.355-42.09-44.881-81.563-76.793-117.067C599.943 363.456 590 382 579.692 403.487c-9.655 20.128-12.611 42.916-18.377 63.076C491.817 433 397.817 435 331.499 464.226c-18.021-43.526-34.387-88.506-60.667-130.94-9.329 9.353-18.106 16.78-25.233 25.549-23.156 28.489-38.596 61.414-52.139 95.191-16.666 41.562-32.515 83.448-40.42 127.798-1.98 11.108-3.495 22.299-5.198 33.284-16.888-1.785-32.869-3.553-48.873-5.094-2.819-.271-6.386-.539-8.43.884-2.465 1.716-4.721 1.103-4.994 7.981-.079 1.991 3.671 5.022 6.25 5.809 4.115 1.254 8.696.901 13.052 1.45 13.82 1.74 27.628 3.583 41.125 5.345 1.359 16.219 1.421 16.834-12.683 18.249-10.359 1.039-20.911.341-31.373.138-5.76-.111-11.456.953-12.262 7.172-.844 6.505 4.918 7.669 10.169 8.121 1.168.102 2.337.271 3.506.272 13.643.02 27.287.013 41.721.013 2.281 6.801.458 13.001-8.247 16.654-8.33 3.496-16.348 7.787-24.801 10.923-5.22 1.937-9.662 3.866-7.933 10.239 1.699 6.263 6.613 6.874 11.942 4.824 9.997-3.846 19.913-7.904 30.117-11.976l1.806 12.621c98.346 0 497.978.022 597.189.022l2.233-11.028c9.374 3.56 18.046 6.906 26.795 9.767 7.666 2.506 8.937-1.854 10.322-4.565 2.7-5.286-1.757-8.25-6.624-10.084-6.275-2.364-12.698-4.538-18.598-7.66-13.428-7.106-14.392-9.722-11.247-25.436 5.432.374 10.922.999 16.42 1.062 5.553.064 11.332.413 16.59-.972 3.413-.898 8.803 1.16 9.063-7.167-.261-4.673-6.652-6.022-10.467-6.894-4.678-1.068-9.881.36-14.856.365-19.376.02-19.382-.029-21.094-19.043-.045-.502.392-1.047.791-2.038 1.992-.387 4.222-.993 6.492-1.23 12.234-1.286 28.728-2.979 40.873-4.833 2.866-.438 3.16-3.409 3.091-5.554.91-8.445-3.652-5.906-6.418-7.93zm-583.247-102.33l58.939-113.039 2.51.322 28.983 71.139-88.231 42.223c-.733-.216-1.467-.43-2.201-.645zm152.891 155.252c-36.666 9.825-69.322-15.838-69.324-54.478-.002-33.167 24.462-63.297 56.903-70.081 35.416-7.407 66.354 19.306 65.596 56.637-.631 31.014-23.245 59.901-53.175 67.922zm240.88-42.146c-6.643 30.158-33.326 47.802-63.72 42.132-32.934-6.144-58.015-36.069-58.268-69.522-.289-38.159 30.968-62.967 68.219-54.144 36.599 8.669 61.501 46.431 53.769 81.534zm56.063-111.822c-16.406-7.688-32.612-15.821-49.18-23.14-6.366-2.812-8.772-6.95-6.858-13.011 7.354-23.281 15.088-46.442 22.68-69.648l3.582.422c21.306 38.382 43.685 76.216 58.764 118.518-9.666-4.373-19.381-8.641-28.988-13.141z"/><path fill-rule="evenodd" clip-rule="evenodd" d="M358.437 541.621c-13.588-.012-24.103 10.829-24.092 24.84.011 13.653 11.067 24.861 24.411 24.746 13.333-.116 24.143-11.348 24.107-25.049-.036-13.915-10.599-24.526-24.426-24.537zM360.5 559a5.5 5.5 0 1 1 0-11 5.5 5.5 0 0 1 0 11zm163.586-16.85c-13.824-.001-24.286 10.407-24.397 24.273-.11 13.647 10.464 24.716 23.854 24.97 13.647.259 25.162-11.146 25.092-24.85-.07-13.436-11.097-24.393-24.549-24.393zM521.5 558a5.5 5.5 0 1 1 .001-11.001A5.5 5.5 0 0 1 521.5 558z"/><path fill="#F9C3D2" d="M437.805 709.114c0-11.445 1.682-22.639-.658-32.914-1.309-5.748-9.309-9.957-14.244-14.908-1.029-1.031-1.904-2.23-2.754-3.422-5.513-7.738-3.266-14.916 6.111-16.059 9.201-1.121 18.766-1.07 27.967.086 9.406 1.182 11.877 8.393 5.971 16.014-3.912 5.047-8.957 9.207-13.381 13.871-1.734 1.826-4.422 3.891-4.512 5.943-.461 10.459-.213 20.949-.213 31.41l-4.287-.021z"/></svg>