<svg xmlns="http://www.w3.org/2000/svg" viewBox="0 0 420.1 188.4"><path d="M385.8 19.6c3.8-6.3 8.5-11.4 14.2-15.6 3.1-2.2 5.1-2.2 6.8 1.9 2.6 6.5 4.7 13.1 2.8 20.3-.7 2.6-.2 4.9 1.3 7 1.8 2.5 3.3 5.2 4.9 7.9 4 6.5 5.6 13.2 2.9 20.8-1.2 3.3-1.3 6.8-.6 10.3.6 3.3.5 6.6 0 10-.8 5.4-3.4 9.2-8.5 10.7-4 1.1-7.5 3.1-10.1 6.7-.7.9-1.5 1.6-2.7 1.8-3.7.5-13.1-8.5-13.1-12.6v-2c.2-12-.5-13.2-10.7-18-2.2-1-4.2-2.2-5.7-4.2-2-2.8-4.5-2.5-7.1-1.3-2.6 1.2-4.3 3-4 6.5.8 8.1 1.1 16.3 1.1 24.4 0 1 .2 2.1.7 2.8 9.7 15.1 13.4 32.9 18.2 50 3.7 13.1 10.6 20.2 23.1 21.1 2 .2 4 .7 5.9 1 5.6 1.1 8.9 4.9 10.6 10.6 2.1 7.1 1 8.6-5.8 8.6s-13.6 0-20.3.1c-2.7 0-5.1-.5-7.1-2.7-3-3.2-7-4.9-10.8-6.7-4.2-2-8-4.5-10.5-8.7-3.5-5.8-8.2-10.4-12.6-15.2-8.9-9.7-18-19.1-26.4-29.4-6-7.4-10-15.6-9.9-25.6 0-3.2-.7-4.5-3.7-2.9-1 .5-2 1-3.1 1-8.8.2-13.1 5.8-16.3 14.1-2.7 7.2-6.7 13.9-10 20.9-2.2 4.6-3.6 9.5-3.6 14.8 0 7.9 1.7 10.8 8.6 13.4 4.3 1.7 8.4 3.4 10.7 8 2.6 5.2 1.9 6.9-3.6 6.9-7.1.1-14.2 0-21.3.1-2.8 0-4.6-1-6-3.7-1.7-3.5-3.8-6.8-5.8-10.2-3.2-5.6-4.5-11.4-2.3-18.1 1.9-5.8 1-12 .2-17.8-1.2-8.8.1-16.6 5.4-23.4 1.7-2.2 2-3.5-1.2-4.1-13-2.6-25.2-7.6-37.1-13.7-.1-.1-.3-.1-.4-.2-10-4.2-11.9-3.2-14.7 7.7-2.4 9.5-5 18.9-6.9 28.5-2.1 10.6.4 20.8 3.5 30.9 1.2 3.9 4.9 3.7 7.7 4.6 6.2 2 11.4 4.8 14.1 11.6 2.1 5.3 1.8 6.1-3.4 6.1-5.4 0-10.8-.3-16.2.1-5.1.4-8.9-1.7-13.1-4.8-15.1-10.9-19.4-27.1-20.6-45.2-.8-11.2-6.2-20-12.9-28.1-1.3-1.6-2.5-2.2-4.3-.9-6.6 4.5-14 7-21.2 9.9-15.1 6.2-28.3 15.5-38.2 29.5-3.6 5.1-6.1 10.8-7 17.2-.8 6 .7 8.6 6.1 10.3 6 1.9 8.4 5 9 11.6.3 2.8-.6 4.2-3.2 4.2-8.5 0-17 0-25.4-.1-1.9 0-3.1-1.2-4.2-2.7-4-5.4-5.9-11.6-6.1-18.5-.3-11.7 1-23.3 2.9-34.8 1.2-7.1 4.3-12.9 10.5-16.1 18.5-9.4 28.2-27.1 36.9-45.8 1.8-3.8.2-4.3-2.8-4-9.1.9-16.8 5.2-24.1 10.7-9.4 7.1-17.8 15.4-26.1 23.9-9.1 9.2-19.5 15.6-32.3 16.6C9.9 109.2-1 95.7.1 73.2c.4-7.6 2.7-14.7 7.6-20.5 3.7-4.5 8.3-6.9 14.1-5.1 4.8 1.5 6 4.1 4 8.9-.8 2-2 3.7-3 5.6-1.1 2.2-2.4 4.3-3.1 6.7-3.3 10 1.1 17.2 11 18.1 10.4 1 18.9-3.7 26.7-10.4 9.5-8.1 17.8-17.6 25.2-27.8 11.7-16.1 26.8-24.6 45.2-27.2 7.1-1 13.5-4.4 20.3-6.5 13-3.9 26.2-6.3 39.7-5.9 6.4.2 12.3-.9 18.3-3.6 15.3-6.7 31.3-6.7 47.3-3.2 12.5 2.7 24.9 6.1 37.4 9.3 7 1.8 14.7 1.2 21.9-.5 13.9-3.3 27.8-6.3 42-6.6 9.3-.2 18.4 1.5 27 5.7 5.9 3 5.9 3 4.1 9.4z"/></svg>