<svg id="Layer_1" xmlns="http://www.w3.org/2000/svg" viewBox="0 0 750.9 435.7"><style>.st0{fill:#3c2415}</style><path class="st0" d="M0 374.4c3.8-1.5 7.8-2.9 11.5-4.6 18.2-8.2 36.1-10.5 55.5-2.4 22.9 9.5 44.5 0 64.4-10.4 4.7-2.5 4.9-13.6 7.6-22.1-14 .8-25.5 1.8-37 2.2-20 .6-34.4-8-42.4-26.7-1.3-3-3.1-5.9-5-8.7-8.2-11.7-13.3-12.8-25.5-5.4.8-9 6.1-13.7 13.8-9.7 7.3 3.7 15.8 9.7 18.7 16.8 10.7 25.8 30.4 30.8 54.9 28 22.7-2.6 22.7-2.4 25.9-24.8 1.9-13.2 5.4-26.3 5.7-39.5.4-18.9 1.1-38.4-2.7-56.7-11.4-55.9-20.2-111.7-15.6-168.8.4-4.9 1.4-9.9 2.7-14.7 6.3-24.4 25.1-34 46.5-21.1 28.2 16.9 55.4 35.5 81.8 55 17 12.6 32.3 27.6 47.2 42.7 10.4 10.5 21.4 16.1 36.4 15.6 22.9-.8 46 .9 68.8-.8 9.4-.7 20.7-5.3 27.2-12 37.9-38.8 80.7-70.9 127.5-97.9 28-16.2 49.8-6.9 52.6 25.4 2.8 33.4 1.6 67.4-1.3 100.9-2.4 28.1-8.9 55.9-15.4 83.4-5.4 23.3-.7 45.6 2.5 68.2.9 6.6 2.1 13.1 3.3 19.7 3.8 22.3 3.8 22.5 25.6 25.1 22.5 2.7 44.2.9 54.9-27.4 2.3-6.1 8.3-11.6 13.9-15.4 8.4-5.8 15.9-2.5 19.4 6.4-5.2-.7-11.5-3.4-16.1-1.7-4.8 1.8-9.9 7.1-11.8 12.1-11.5 30.3-35.2 34.9-63.2 31.3-5-.6-9.9-1.1-14.9-1.6-.3 0-.7.4-1 .6-2 18.3-.9 20.2 15.2 26.9 20.2 8.4 40.1 12.5 61.5 2.5 13.9-6.5 28.6-2.3 42.6 2.9 4.9 1.8 10.1 2.9 15.2 4.3v7.5c-7-2.7-14-5.3-21-8-13.8-5.2-27.4-5.6-41.3.6-19.5 8.7-38.4 3.1-57-3.7-3.8-1.4-7.5-3-11.9-4.9-4.7 22.6 13.3 30.8 25 40.2 11.9 9.7 27.9 14.2 41.9 20.8-12 3.1-24-1.5-34.5-8.2-10.6-6.8-23-7-44.9-41.1-30.1 44.9-71.1 62.2-121.7 59.2-3.3-.2-6.6-1-9.7-2.2-9-3.5-10.4-9.2-3.5-16.1 31.8-31.4 18.3-41.7-3.5-62.2-12.1-11.4-25.8-21.2-37.9-32.6-7.7-7.3-13.8-16.4-20.7-24.6l.3.4c-4.4-10-9.2-19.8-12.8-30-1.5-4.3-1.3-9.7-.4-14.3 4.6-21.7 6.4-42.7-6.7-62.7-10-15.3-17-15.7-27.7-.9-12.8 17.6-14.5 36.6-9.4 57.1 2.4 9.5 6.5 19.6-5 26.7-.3.2-.5.7-.5 1.1-5 34.6-31.9 52.1-55.7 72.2-8.2 6.9-16 14.6-23.1 22.7-10.8 12.3-10.7 21.7-.8 34.7 2.8 3.6 6.5 6.6 9 10.4 2.6 3.8 6.7 9.2 5.6 12.3-1.3 3.5-7.2 6.7-11.6 7.6-21.4 4.6-42.1.4-62.4-6.9-29.2-10.7-46-24.1-62.9-52.1-18.6 32-53.8 52.1-82.2 50.3 15.1-7.1 31.3-11.7 43.3-21.4 11.7-9.4 30.1-17.4 25.2-38.9-13.2 3.6-25.7 8.3-38.6 10.2-9.1 1.3-19.8 1.1-28-2.6-18.7-8.4-35.6-4.9-53 2.5-3.8 1.6-8.4 1.3-12.7 1.8-.1-.8-.1-1.6-.1-2.5zM596.2 15.5c-.5-1.3-1-2.7-1.5-4-6.9 3.5-15.6 5.4-20.4 10.8-22.1 24.9-42.7 51-64.6 76.1-11.4 13-23.8 25.2-37 36.3-4.3 3.6-12.8 4.5-18.7 3.4-51.9-9.6-103.6-9.4-155.4-.2-6 1.1-14.4.4-18.7-3.1-13-10.7-25.4-22.4-36.4-35.1-22.1-25.4-43-51.9-65-77.4-6.2-7.1-14.5-12.2-23.2-7.6 9.2 6.9 20.2 12.5 27.6 21.1 30.3 35.3 59.6 71.6 88.4 106.5-11.6 4.3-26.4 7.9-39.2 15-21.7 12.1-32.8 33.4-42.2 55.7-3.5 8.2-7.9 16.7-13.9 23.2-10.6 11.5-14.4 18.9-13.6 36 1.2-1.9 2.2-3.2 2.8-4.7 13.3-30.3 34.5-48.1 69.6-46 15.8 1 29.1-5.9 39.5-18.1 5.4-6.3 11.1-12.5 16-19.2 8.1-11 18.9-16.8 31.9-20.4 34.2-9.5 68.2-8.3 102.6-.8 17.3 3.8 30.9 11.5 40.7 26.3 15.2 23 36 34.6 64.3 33.1 16.7-.9 30.9 5.9 40.9 20 6.6 9.4 13.1 18.8 19.6 28.3-.7-9.5-.6-22-6.8-27.1-13.5-11.2-18.9-26-25.4-40.7-13.9-31.4-36.5-52.3-71.3-58.3-3.1-.5-6.1-1.5-12-3 24.1-12.5 35.2-33.2 49.2-51.8 20.7-27.9 40.5-57.1 72.2-74.3zM426 273.8c3.6 38.7 39.8 66 79.5 61.3 31.6-3.8 56.4-34 51.8-64.4-5.4-.6-11-1.3-16.5-2-2.8 9-4.4 17.2-7.8 24.6-10.3 22.4-35 27.4-52.3 10-7.1-7.1-11.2-17.3-16.9-25.8-1.8-2.6-4.7-6.5-7-6.4-10.4.2-20.6 1.7-30.8 2.7zm-134.8-3.3c-8.4 21.3-17.5 43.6-44.3 42.7-26.2-.9-30.5-23.9-35-44-19.8.2-21.6 2.4-16.9 20.2 8 30.6 36.2 49.2 69.5 45.8 31.5-3.1 60-31.2 61.4-61.6-11.3-1-22.7-2-34.7-3.1zM247 280.8c.1-1.9.1-3.7.2-5.6-4.5-3.1-9.5-9.2-13.2-8.5-5.1 1-11.2 6.5-12.9 11.5-.9 2.7 6.5 11.9 9.7 11.7 5.5-.4 10.8-5.8 16.2-9.1zm219.5-3.8c5.5 4.7 9.3 7.9 13 11.1 2.2-2.9 6.7-6.8 6-8.5-1.8-4.3-5.9-7.7-9.1-11.4-2.7 2.3-5.3 4.7-9.9 8.8z"/><path class="st0" d="M410.3 296.8c1.6 9 0 12.8-11.1 11.3-6.6-.9-13.9 4-21 8.6 33.4 1.3 51.2 21.3 63.2 48 3.4 7.6 3.3 16.7 4.8 25.1l-5.4 1.5c-1.4-3.1-3.7-6.2-4.2-9.5-5.2-35.7-26.6-57.3-55.6-55.4-34.2 2.2-62.7 32.3-62.5 66.1 0 1.2.7 2.7.2 3.7-1.4 2.9-3.2 5.6-4.9 8.4-1.3-2.7-3.6-5.3-3.8-8.1-2-29 18.4-58.1 49.6-71 4.7-2 9.5-3.8 16.6-6.7-9.8-6.1-15.7-13.1-25.9-7.2-2.3 1.3-6.6-.9-10-1.5.9-3.4 1-7.5 2.9-10.1 12.9-17.2 49.5-18.5 67.5-2.7-.1-.1-.4-.5-.4-.5z"/><path d="M291.1 270.9c-8.4 21.3-17.5 43.6-44.3 42.7-26.2-.9-30.5-23.9-35-44-19.8.2-21.6 2.4-16.9 20.2 8 30.6 36.2 49.2 69.5 45.8 31.5-3.1 60-31.2 61.4-61.6-11.2-1-22.6-2-34.7-3.1zm134.9 3.6c3.6 38.7 39.8 66 79.5 61.3 31.6-3.8 56.4-34 51.8-64.4-5.4-.6-11-1.3-16.5-2-2.8 9-4.4 17.2-7.8 24.6-10.3 22.4-35 27.4-52.3 10-7.1-7.1-11.2-17.3-16.9-25.8-1.8-2.6-4.7-6.5-7-6.4-10.4.2-20.6 1.7-30.8 2.7z" fill="#00a79d"/></svg>