<svg xmlns="http://www.w3.org/2000/svg" viewBox="0 0 324.6 425.2"><path d="M254.3 0h-1.8c-3.2 1.5-5 4.1-6.7 7-2.7 4.8-4.7 9.9-6.1 15.1-1 3.5-3 5.2-6.9 5.9-10.8 1.8-18.7 7.6-24.3 16.4-3.4 5.5-6.1 11.3-8.6 17.3-6.6 16.1-11.7 32.8-17.9 49.1-2.9 7.8-3.1 7.7-11.9 7.8-10.5.1-9.8-1.5-9.9 9.4-.1 3.5 1.1 5.2 5 5 1.2-.1 3-.6 3.5.9.4 1.3-1.1 2.1-2 3-5.5 5.5-12.5 8.7-20.1 10.7-8.8 2.2-17.8 4-26.4 6.7-22 7-42.4 16.7-58.2 33.2-9.7 10.1-16.3 22-22 34.4-17 37.7-25.1 77.6-31.5 117.9-3 18.9-5.1 37.9-6.8 56.9-.8 9.5-1.9 19-1.7 28.6h154.5c.5-2-.3-3.8-1.1-5.6-3.1-7.7-9.6-11.7-17.7-13.5-3.2-.7-3.6-1.6-1.6-4 3.4-4.1 5.6-8.7 7.4-13.6 7.6-21.1 10.5-43.1 14.1-64.9 2.8-16.7 7-32.8 16.1-47.5 6.8-10.9 15.3-20.3 25.9-27.9 3.9-2.8 4-2.8 4.6 1.9.4 3.1.6 6.3.8 9.5 1.3 20.7 1.2 41.4-.8 62.1-1.6 16.1-2.2 32.2-.7 48.4 1.7 18.6 5.3 36.9 10.4 55h61.8c-1.5-9.6-9.8-17.6-19.7-19.5-6-1.1-11.7-.4-17.5.9-2.8.6-3.9.1-4.2-2.8-1.8-23.3-.6-46.5 4.5-69.3 5.8-26.4 11.3-52.9 14.2-79.7 1.2-11.1 4.8-21.2 10.5-30.8 5.5-9.3 10.4-19 15.8-28.3 4.3-7.4 5.1-14.9 1.9-22.8-1.3-3.1-2.5-6.2-4-9.2-4.4-8.6-9.1-17-13.5-25.7-2.3-4.5-1.8-4.9 3.3-5 7.6-.2 7.6-.2 7.7-7.2v-2.9c.1-3-1.2-4.7-4.7-4.4-2.3.2-4.7 0-7.1 0-3.2.1-4.1-1.3-3.3-4.2 2.7-10 12.9-18.2 23.8-19.4 10.4-1.2 20.5.2 30.7 1.9 3 .5 4.7-.1 5.8-2.8 1.8-4.4 3.9-8.7 6-12.9.9-1.8.9-3.4-.4-5-14.7-18-30.8-34.6-52.7-45.2-2.3-1.1-3.6-2.5-4.1-4.9-1.4-6.2-3-12.4-5.9-18.2-1.5-3.2-3.2-6.1-6.5-7.8z"/></svg>